<?xml version="1.0" encoding="utf-8"?>
<!-- Svg Vector Icons : http://www.onlinewebfonts.com/icon -->
<!DOCTYPE svg PUBLIC "-//W3C//DTD SVG 1.1//EN" "http://www.w3.org/Graphics/SVG/1.1/DTD/svg11.dtd">
<svg version="1.1" xmlns="http://www.w3.org/2000/svg" xmlns:xlink="http://www.w3.org/1999/xlink" x="0px" y="0px" viewBox="0 0 256 256" enable-background="new 0 0 256 256" xml:space="preserve">
<metadata> Svg Vector Icons : http://www.onlinewebfonts.com/icon </metadata>
<g> <path fill="#f8c598" d="M128,24.6c-62.6,0-113.4,33.6-113.4,75h226.7C241.4,58.1,190.6,24.6,128,24.6z M14.7,192.3 c0,21.6,17.6,39.2,39.2,39.2h148.3c21.6,0,39.2-17.6,39.2-39.2v-2.8H14.7V192.3z M102,143.4l-57,0.2l28.5,27.2L102,143.4z"/> <path fill="#ef7f1b" d="M14.7,104.2h226.7c2.5,0,4.6-2.1,4.6-4.6c0-21.6-12.5-41.8-35.3-56.9C188.5,28,159.2,19.9,128,19.9 c-31.2,0-60.5,8.1-82.7,22.7C22.6,57.7,10,77.9,10,99.6C10.1,102.1,12.2,104.2,14.7,104.2z M50.4,50.4 C71.1,36.7,98.7,29.2,128,29.2s56.9,7.5,77.6,21.2C224,62.5,234.9,78.2,236.5,95h-217C21.2,78.2,32,62.5,50.4,50.4z M241.4,111.8 c-10.6,0-16.1,2.9-21,5.5c-4.5,2.4-8.5,4.5-16.7,4.5c-8.3,0-12.2-2.1-16.7-4.5c-4.9-2.6-10.4-5.5-21-5.5s-16.1,2.9-21,5.5 c-4.5,2.4-8.5,4.5-16.7,4.5c-8.3,0-12.2-2.1-16.7-4.5c-4.9-2.6-10.4-5.5-21-5.5s-16.1,2.9-21,5.5c-4.5,2.4-8.5,4.5-16.7,4.5 c-8.3,0-12.2-2.1-16.7-4.5c-4.9-2.6-10.4-5.5-21-5.5c-2.5,0-4.6,2.1-4.6,4.6c0,2.5,2.1,4.6,4.6,4.6c8.3,0,12.2,2.1,16.7,4.5 c4.9,2.6,10.4,5.5,21,5.5c10.6,0,16.1-2.9,21-5.5c4.5-2.4,8.5-4.5,16.7-4.5s12.2,2.1,16.7,4.5c4.9,2.6,10.4,5.5,21.1,5.5 c10.6,0,16.1-2.9,21-5.5c4.5-2.4,8.5-4.5,16.7-4.5s12.2,2.1,16.7,4.5c4.9,2.6,10.4,5.5,21,5.5c10.6,0,16.1-2.9,21-5.5 c4.5-2.4,8.5-4.5,16.7-4.5c2.5,0,4.6-2.1,4.6-4.6C246,113.9,243.9,111.8,241.4,111.8L241.4,111.8z M226.9,138.6H29.1 c-10.5,0-19.1,8.3-19.1,18.4c0,10.1,8.5,18.4,19.1,18.4h197.8c10.5,0,19.1-8.3,19.1-18.4c0-0.5-0.1-1-0.2-1.4 C245,146.1,236.9,138.6,226.9,138.6z M90.7,147.9l-17.3,16.6l-17.3-16.6H90.7z M19.3,157c0-5.1,4.4-9.2,9.8-9.2h13.6L62,166.3H29.1 C23.7,166.3,19.3,162.1,19.3,157z M226.9,166.3H84.8l19.2-18.4h122.9c5.4,0,9.6,4,9.6,9.2c0,0.3,0,0.7,0.1,1 C236.2,162.6,232,166.3,226.9,166.3L226.9,166.3z M241.4,184.8H14.7c-2.5,0-4.6,2.1-4.6,4.6v2.8c0,24.2,19.6,43.8,43.8,43.8h148.3 c24.2,0,43.8-19.6,43.8-43.8v-2.8C246,186.8,243.9,184.8,241.4,184.8z M202.2,226.8H53.9c-18.5,0-33.6-14.6-34.5-32.8h217.4 C235.8,212.3,220.7,226.8,202.2,226.8z"/> <path fill="#ef7f1b" d="M127.2,37.3c-1.8-1.8-4.7-1.8-6.5,0c-1.8,1.8-1.8,4.7,0,6.5l7.8,7.8c0.9,0.9,2.1,1.3,3.3,1.3 c1.2,0,2.3-0.5,3.3-1.3c1.8-1.8,1.8-4.7,0-6.5L127.2,37.3z M88.9,46.8c-1.8-1.8-4.7-1.8-6.5,0c-1.8,1.8-1.8,4.7,0,6.5l7.8,7.8 c0.9,0.9,2.1,1.3,3.3,1.3c1.2,0,2.3-0.5,3.3-1.3c1.8-1.8,1.8-4.7,0-6.5L88.9,46.8z M166.3,45.2c-1.8-1.8-4.7-1.8-6.5,0 c-1.8,1.8-1.8,4.7,0,6.5l7.8,7.8c0.9,0.9,2.1,1.3,3.3,1.3c1.2,0,2.3-0.5,3.3-1.3c1.8-1.8,1.8-4.7,0-6.5L166.3,45.2z"/></g>
</svg>